# This file uses centimeters as units for non-parametric coordinates.

mtllib HD.mtl
v 0.059735 0.000000 0.085698
v 0.059735 0.000000 -0.085698
v 0.059735 0.027953 0.085698
v 0.059735 0.027953 -0.085698
v -0.059735 0.027953 0.085698
v -0.059735 0.027953 -0.085698
v -0.059735 0.000000 0.085698
v -0.059735 0.000000 -0.085698
vt 0.687791 0.946374
vt 0.330091 0.946374
vt 0.330091 0.829548
vt 0.687791 0.829548
vt 0.330091 0.459111
vt 0.687791 0.459111
vt 0.330091 0.345937
vt 0.687791 0.345937
vt 0.330091 0.051103
vt 0.687791 0.051103
vt 0.026092 0.946374
vt 0.026092 0.829548
vt 0.994298 0.946374
vt 0.994298 0.829548
vn 1.000000 0.000000 0.000000
vn 1.000000 0.000000 0.000000
vn 1.000000 0.000000 0.000000
vn 1.000000 0.000000 0.000000
vn 0.000000 1.000000 0.000000
vn 0.000000 1.000000 0.000000
vn 0.000000 1.000000 0.000000
vn 0.000000 1.000000 0.000000
vn -1.000000 0.000000 0.000000
vn -1.000000 0.000000 0.000000
vn -1.000000 0.000000 0.000000
vn -1.000000 0.000000 0.000000
vn 0.000000 -1.000000 0.000000
vn 0.000000 -1.000000 0.000000
vn 0.000000 -1.000000 0.000000
vn 0.000000 -1.000000 0.000000
vn 0.000000 0.000000 -1.000000
vn 0.000000 0.000000 -1.000000
vn 0.000000 0.000000 -1.000000
vn 0.000000 0.000000 -1.000000
vn 0.000000 0.000000 1.000000
vn 0.000000 0.000000 1.000000
vn 0.000000 0.000000 1.000000
vn 0.000000 0.000000 1.000000
usemtl default
f 1/1/1 2/2/2 3/4/3
f 3/4/3 2/2/2 4/3/4
f 3/4/5 4/3/6 5/6/7
f 5/6/7 4/3/6 6/5/8
f 5/6/9 6/5/10 7/8/11
f 7/8/11 6/5/10 8/7/12
f 7/8/13 8/7/14 1/10/15
f 1/10/15 8/7/14 2/9/16
f 2/2/17 8/11/18 4/3/19
f 4/3/19 8/11/18 6/12/20
f 7/13/21 1/1/22 5/14/23
f 5/14/23 1/1/22 3/4/24
