# This file uses centimeters as units for non-parametric coordinates.

mtllib server_rack.mtl
v -0.500000 0.000000 -0.500000
v -0.500000 0.000000 0.500000
v -0.500000 3.000000 0.500000
v -0.500000 3.000000 -0.500000
v 0.500000 0.000000 -0.500000
v 0.500000 3.000000 -0.500000
v 0.500000 0.000000 0.500000
v 0.450000 0.150000 0.500000
v -0.450000 0.150000 0.500000
v -0.450000 2.850000 0.500000
v 0.450000 2.850000 0.500000
v 0.500000 3.000000 0.500000
v -0.450000 0.150000 -0.400000
v -0.450000 2.850000 -0.400000
v 0.450000 2.850000 -0.400000
v 0.450000 0.150000 -0.400000
vt 0.375000 0.000000
vt 0.625000 0.000000
vt 0.625000 0.250000
vt 0.375000 0.250000
vt 0.125000 0.000000
vt 0.125000 0.250000
vt 0.375000 0.750000
vt 0.625000 0.750000
vt 0.625000 1.000000
vt 0.375000 1.000000
vt 0.875000 0.000000
vt 0.862500 0.012500
vt 0.637500 0.012500
vt 0.637500 0.237500
vt 0.862500 0.237500
vt 0.875000 0.250000
vt 0.625000 0.500000
vt 0.375000 0.500000
vt 0.600000 0.250000
vt 0.600000 0.000000
vt 0.375000 0.000000
vt 0.375000 0.250000
vt 0.600000 0.500000
vt 0.375000 0.500000
vt 0.125000 0.000000
vt 0.125000 0.250000
vt 0.600000 1.000000
vt 0.600000 0.750000
vt 0.375000 0.750000
vt 0.375000 1.000000
vn -1.000000 0.000000 0.000000
vn -1.000000 0.000000 0.000000
vn -1.000000 0.000000 0.000000
vn -1.000000 0.000000 0.000000
vn -0.000000 0.000000 -1.000000
vn -0.000000 0.000000 -1.000000
vn -0.000000 0.000000 -1.000000
vn -0.000000 0.000000 -1.000000
vn 0.000000 -1.000000 0.000000
vn 0.000000 -1.000000 0.000000
vn 0.000000 -1.000000 0.000000
vn 0.000000 -1.000000 0.000000
vn 0.000000 0.000000 1.000000
vn 0.000000 0.000000 1.000000
vn 0.000000 0.000000 1.000000
vn 0.000000 0.000000 1.000000
vn 0.000000 0.000000 1.000000
vn 0.000000 0.000000 1.000000
vn 0.000000 0.000000 1.000000
vn 0.000000 0.000000 1.000000
vn 0.000000 1.000000 0.000000
vn 0.000000 1.000000 0.000000
vn 0.000000 1.000000 0.000000
vn 0.000000 1.000000 0.000000
vn 1.000000 0.000000 -0.000000
vn 1.000000 0.000000 -0.000000
vn 1.000000 0.000000 -0.000000
vn 1.000000 0.000000 -0.000000
vn 1.000000 0.000000 -0.000000
vn 1.000000 0.000000 -0.000000
vn 1.000000 0.000000 -0.000000
vn 1.000000 0.000000 -0.000000
vn 0.000000 -1.000000 0.000000
vn 0.000000 -1.000000 0.000000
vn 0.000000 -1.000000 0.000000
vn 0.000000 -1.000000 0.000000
vn 0.000000 0.000000 1.000000
vn 0.000000 0.000000 1.000000
vn 0.000000 0.000000 1.000000
vn 0.000000 0.000000 1.000000
vn 0.000000 1.000000 0.000000
vn 0.000000 1.000000 0.000000
vn 0.000000 1.000000 0.000000
vn 0.000000 1.000000 0.000000
vn -1.000000 0.000000 0.000000
vn -1.000000 0.000000 0.000000
vn -1.000000 0.000000 0.000000
vn -1.000000 0.000000 0.000000
usemtl default
f 1/1/1 2/2/2 4/4/3
f 4/4/3 2/2/2 3/3/4
f 5/5/5 1/1/6 6/6/7
f 6/6/7 1/1/6 4/4/8
f 5/7/9 7/8/10 1/10/11
f 1/10/11 7/8/10 2/9/12
f 3/3/13 2/2/14 10/14/15
f 10/14/15 2/2/14 9/13/16
f 2/2/14 7/11/17 9/13/16
f 7/11/17 8/12/18 9/13/16
f 7/11/17 12/16/19 8/12/18
f 8/12/18 12/16/19 11/15/20
f 12/16/19 3/3/13 11/15/20
f 10/14/15 11/15/20 3/3/13
f 4/4/21 3/3/22 6/18/23
f 6/18/23 3/3/22 12/17/24
f 6/18/25 12/17/26 5/7/27
f 5/7/27 12/17/26 7/8/28
f 10/19/29 9/20/30 14/22/31
f 14/22/31 9/20/30 13/21/32
f 11/23/33 10/19/34 15/24/35
f 15/24/35 10/19/34 14/22/36
f 16/25/37 15/26/38 13/21/39
f 13/21/39 15/26/38 14/22/40
f 9/27/41 8/28/42 13/30/43
f 13/30/43 8/28/42 16/29/44
f 8/28/45 11/23/46 16/29/47
f 16/29/47 11/23/46 15/24/48
